<?xml version="1.0" standalone="no"?>
<!DOCTYPE svg PUBLIC "-//W3C//DTD SVG 20010904//EN"
 "http://www.w3.org/TR/2001/REC-SVG-20010904/DTD/svg10.dtd">
<svg version="1.0" xmlns="http://www.w3.org/2000/svg"
 width="512.000000pt" height="512.000000pt" viewBox="0 0 512.000000 512.000000"
 preserveAspectRatio="xMidYMid meet">

<g transform="translate(0.000000,512.000000) scale(0.100000,-0.100000)"
fill="#000000" stroke="none">
<path d="M2550 4620 c-317 -21 -655 -108 -995 -258 -49 -21 -112 -42 -140 -47
-103 -15 -293 -77 -410 -135 -256 -124 -444 -306 -582 -558 -26 -48 -80 -129
-120 -180 -383 -490 -401 -957 -54 -1417 37 -49 84 -115 105 -147 46 -70 165
-185 231 -222 181 -101 403 -110 645 -25 47 16 92 32 102 35 12 4 26 -9 50
-48 109 -169 262 -285 448 -338 110 -32 322 -38 475 -15 l116 17 48 -45 c55
-52 119 -87 212 -116 67 -21 193 -41 259 -41 37 0 43 -6 288 -278 138 -153
263 -284 279 -292 38 -19 381 -27 444 -10 54 15 104 64 118 116 9 33 7 57 -14
143 -14 56 -25 106 -25 110 0 4 26 14 58 21 84 19 216 67 307 112 312 157 541
405 615 668 26 94 28 240 4 320 -16 56 -64 151 -91 182 -14 15 -12 21 14 55
257 332 239 758 -47 1104 -36 44 -101 123 -144 176 -130 159 -504 526 -641
629 -402 301 -798 452 -1265 484 -80 5 -152 9 -160 8 -8 0 -67 -4 -130 -8z
m391 -331 c46 -6 86 -13 88 -15 2 -2 -14 -25 -36 -51 -102 -122 -169 -259
-205 -416 -24 -106 -30 -362 -10 -432 38 -133 221 -159 292 -42 17 28 19 50
19 192 -1 185 16 269 77 385 51 98 207 250 256 250 52 0 490 -258 505 -296 3
-9 -10 -45 -28 -82 -29 -56 -44 -73 -108 -116 -44 -31 -81 -65 -92 -86 -25
-47 -24 -106 4 -154 51 -89 154 -100 268 -28 76 48 153 126 193 194 l28 47 82
-87 c46 -48 112 -121 147 -163 35 -42 93 -111 129 -153 134 -159 152 -183 186
-251 110 -221 70 -430 -121 -635 -98 -105 -116 -145 -95 -212 8 -28 26 -56 52
-78 86 -76 114 -108 126 -147 52 -172 -76 -388 -328 -552 -148 -96 -312 -157
-505 -186 -116 -17 -160 -45 -185 -114 -13 -37 -13 -50 3 -126 9 -46 20 -91
23 -100 5 -12 -1 -15 -27 -15 -32 0 -51 19 -283 276 -159 177 -260 281 -280
289 -17 7 -87 15 -156 18 -197 10 -261 39 -325 147 -11 19 -36 45 -55 58 -42
28 -87 27 -230 -8 -78 -20 -122 -24 -250 -24 -173 -1 -219 11 -317 78 -48 33
-143 140 -143 161 0 6 29 35 64 63 122 97 206 236 228 375 9 59 8 86 -5 150
-19 95 -47 141 -98 167 -74 38 -166 14 -209 -55 -24 -38 -26 -69 -15 -180 6
-66 5 -72 -23 -117 -80 -123 -373 -280 -596 -319 -168 -29 -232 10 -436 266
-151 190 -210 313 -225 470 -7 74 11 202 37 264 l14 35 28 -57 c111 -228 342
-378 588 -381 105 -1 128 8 172 68 29 39 29 133 0 173 -33 45 -82 73 -128 73
-200 1 -355 142 -388 354 -22 142 21 273 143 436 155 206 372 335 664 395 145
30 220 1 305 -116 57 -78 91 -99 163 -99 83 0 151 72 151 160 0 51 -20 90 -91
177 l-43 52 84 26 c116 35 292 74 406 90 120 16 400 18 511 4z"/>
<path d="M2170 3698 c-25 -13 -55 -39 -68 -58 -21 -31 -23 -43 -18 -104 4 -52
1 -78 -11 -103 -46 -98 -249 -188 -379 -168 -33 5 -57 17 -94 50 -37 33 -61
45 -95 51 -102 15 -196 -79 -181 -180 13 -83 124 -186 239 -222 125 -38 310
-25 450 32 l60 24 53 -58 c107 -118 236 -182 370 -182 126 0 219 44 250 117
32 75 7 152 -66 201 -36 24 -68 25 -171 7 -46 -9 -79 8 -139 69 l-45 47 27 47
c85 153 73 360 -26 421 -54 34 -102 37 -156 9z"/>
<path d="M3230 3198 c-58 -30 -90 -77 -90 -135 0 -64 25 -108 85 -150 29 -20
62 -52 75 -70 29 -42 50 -122 50 -188 0 -48 -24 -183 -35 -193 -2 -3 -39 2
-80 11 -160 36 -369 16 -492 -47 -113 -57 -233 -190 -249 -274 -21 -111 88
-211 198 -181 41 11 69 35 132 114 45 56 97 78 199 83 108 6 198 -14 315 -69
152 -70 265 -166 314 -267 17 -36 23 -66 24 -127 1 -94 11 -122 53 -158 80
-67 192 -48 245 43 27 46 33 165 12 254 -36 151 -161 324 -313 433 -47 33 -62
50 -58 62 51 131 69 346 41 473 -37 165 -147 318 -275 381 -67 33 -94 34 -151
5z"/>
<path d="M4194 2900 c-157 -31 -192 -45 -225 -91 -73 -102 4 -249 130 -249 55
0 298 48 332 66 36 18 66 58 79 102 20 76 -34 171 -110 192 -45 13 -40 13
-206 -20z"/>
</g>
</svg>
