<svg width="26" height="24" viewBox="0 0 26 24" fill="none" xmlns="http://www.w3.org/2000/svg">
<path d="M12.8523 22.1977C12.9508 22.1977 13.064 22.1727 13.192 22.1227C13.3201 22.0726 13.4235 22.0075 13.5023 21.9274L23.4591 11.7747C23.7152 11.5144 23.9072 11.2174 24.0352 10.8836C24.1633 10.5499 24.2273 10.2161 24.2273 9.88235C24.2273 9.54193 24.1633 9.2015 24.0352 8.86108C23.9072 8.52065 23.7152 8.22028 23.4591 7.95995L18.1409 2.55319C17.8848 2.29287 17.5894 2.09762 17.2545 1.96746C16.9197 1.8373 16.5848 1.77222 16.25 1.77222C15.9217 1.77222 15.5934 1.8373 15.2652 1.96746C14.9369 2.09762 14.6447 2.29287 14.3886 2.55319L13.8568 3.09387L16.25 5.55695C16.5061 5.8373 16.7326 6.1627 16.9295 6.53317C17.1265 6.90363 17.225 7.30914 17.225 7.74969C17.225 8.51064 16.9345 9.18148 16.3534 9.7622C15.7723 10.3429 15.1076 10.6333 14.3591 10.6333C13.8667 10.6333 13.458 10.5582 13.133 10.408C12.808 10.2578 12.5107 10.0441 12.2411 9.76698L10.075 7.56946L4.72727 13.0063C4.62879 13.1064 4.55985 13.2118 4.52045 13.3224C4.48106 13.4331 4.46136 13.5517 4.46136 13.6781C4.46136 13.9311 4.54508 14.1427 4.7125 14.3129C4.87992 14.4831 5.08839 14.5682 5.33789 14.5682C5.46263 14.5682 5.57917 14.5382 5.6875 14.4781C5.79583 14.418 5.88939 14.3479 5.96818 14.2678L10.0455 10.1227L11.2864 11.3842L7.23864 15.4994C7.14015 15.5995 7.07121 15.7096 7.03182 15.8298C6.99242 15.9499 6.97273 16.0701 6.97273 16.1902C6.97273 16.4305 7.06136 16.6408 7.23864 16.821C7.41591 17.0013 7.62273 17.0914 7.85909 17.0914C7.97727 17.0914 8.09053 17.0663 8.19886 17.0163C8.3072 16.9662 8.40076 16.9011 8.47955 16.821L12.5568 12.6758L13.7977 13.9374L9.75 18.0526C9.67121 18.1327 9.6072 18.2361 9.55795 18.3629C9.50871 18.4898 9.48409 18.6166 9.48409 18.7434C9.48409 18.9837 9.57273 19.194 9.75 19.3742C9.92727 19.5544 10.1341 19.6446 10.3705 19.6446C10.4886 19.6446 10.597 19.6245 10.6955 19.5845C10.7939 19.5444 10.8924 19.4743 10.9909 19.3742L15.0682 15.229L16.3091 16.4906L12.2318 20.6358C12.1333 20.7359 12.0644 20.8461 12.025 20.9662C11.9856 21.0864 11.9659 21.1965 11.9659 21.2966C11.9659 21.577 12.0447 21.7972 12.2023 21.9574C12.3598 22.1176 12.5765 22.1977 12.8523 22.1977ZM12.8542 24C12.2029 24 11.6212 23.7547 11.1091 23.2641C10.597 22.7735 10.2917 22.1665 10.1932 21.4432C9.52348 21.3455 8.96212 21.0663 8.50909 20.6058C8.05606 20.1452 7.7803 19.5745 7.68182 18.8936C7.01212 18.7935 6.45568 18.5081 6.0125 18.0375C5.56932 17.567 5.29848 17.0013 5.2 16.3404C4.47121 16.2403 3.87045 15.9399 3.39773 15.4393C2.925 14.9387 2.68864 14.3379 2.68864 13.637C2.68864 13.2966 2.75486 12.9557 2.8873 12.6143C3.01974 12.2729 3.20958 11.973 3.45682 11.7146L10.075 4.98623L13.325 8.29036C13.4826 8.45056 13.6533 8.57572 13.8371 8.66583C14.021 8.75594 14.2048 8.801 14.3886 8.801C14.6447 8.801 14.886 8.68586 15.1125 8.45557C15.339 8.22528 15.4523 7.97843 15.4523 7.71502C15.4523 7.59796 15.4178 7.46433 15.3489 7.31414C15.2799 7.16395 15.1667 7.00876 15.0091 6.84856L10.7841 2.55319C10.528 2.29287 10.2326 2.09762 9.89773 1.96746C9.56288 1.8373 9.22803 1.77222 8.89318 1.77222C8.56489 1.77222 8.23661 1.8373 7.90834 1.96746C7.58005 2.09762 7.28846 2.29143 7.03356 2.5489L2.54091 7.1189C2.26515 7.39925 2.07311 7.69462 1.96477 8.00501C1.85644 8.31539 1.79242 8.66583 1.77273 9.05632C1.75303 9.44681 1.82689 9.82728 1.99432 10.1977C2.16174 10.5682 2.36364 10.9036 2.6 11.204L1.32955 12.4956C0.935606 12.0551 0.61553 11.5244 0.369318 10.9036C0.123106 10.2829 0 9.65206 0 9.01126C0 8.41051 0.113258 7.83479 0.339773 7.28411C0.566288 6.73342 0.886364 6.24781 1.3 5.82728L5.76136 1.29161C6.1947 0.851064 6.68508 0.525657 7.23252 0.315394C7.77998 0.105131 8.34134 0 8.91661 0C9.4919 0 10.0504 0.105131 10.592 0.315394C11.1337 0.525657 11.6212 0.851064 12.0545 1.29161L12.5864 1.83229L13.1182 1.29161C13.5515 0.851064 14.0419 0.525657 14.5893 0.315394C15.1368 0.105131 15.6982 0 16.2734 0C16.8487 0 17.4072 0.105131 17.9489 0.315394C18.4905 0.525657 18.978 0.851064 19.4114 1.29161L24.7 6.66834C25.1333 7.10889 25.4583 7.60984 25.675 8.1712C25.8917 8.73257 26 9.30328 26 9.88334C26 10.4634 25.8917 11.0288 25.675 11.5795C25.4583 12.1302 25.1333 12.6258 24.7 13.0663L14.7432 23.189C14.4871 23.4493 14.1963 23.6496 13.8706 23.7897C13.545 23.9299 13.2062 24 12.8542 24Z" fill="black"/>
</svg>
