<svg width="52" height="56" viewBox="0 0 52 56" fill="none" xmlns="http://www.w3.org/2000/svg">
<g filter="url(#filter0_d_329_1130)">
<path d="M22.5 3.02073C24.6658 1.7703 27.3342 1.7703 29.5 3.02073L44.1506 11.4793C46.3164 12.7297 47.6506 15.0406 47.6506 17.5415V34.4585C47.6506 36.9594 46.3164 39.2703 44.1506 40.5207L29.5 48.9793C27.3342 50.2297 24.6658 50.2297 22.5 48.9793L7.84937 40.5207C5.68356 39.2703 4.34937 36.9594 4.34937 34.4585L4.34937 17.5415C4.34937 15.0406 5.68356 12.7297 7.84937 11.4793L22.5 3.02073Z" fill="url(#paint0_linear_329_1130)"/>
<path d="M29.25 3.45374L43.9006 11.9123C45.9117 13.0734 47.1506 15.2192 47.1506 17.5415V34.4585C47.1506 36.7808 45.9117 38.9266 43.9006 40.0877L29.25 48.5463C27.2389 49.7074 24.7611 49.7074 22.75 48.5463L8.09937 40.0877C6.08826 38.9266 4.84937 36.7808 4.84937 34.4585L4.84937 17.5415C4.84937 15.2192 6.08826 13.0734 8.09937 11.9123L22.75 3.45374C24.7611 2.29263 27.2389 2.29263 29.25 3.45374Z" stroke="#FFC446"/>
</g>
<path d="M32.7453 18.75V16.5H19.25V18.75H15.5V20.5312C15.5 22.0312 15.9453 23.4745 16.7544 24.5911C17.3792 25.4536 18.3561 26.0489 19.2345 26.3353C19.4895 27.7083 20.1814 29.0133 21.5872 30.0773C22.6184 30.8583 23.8583 31.4306 24.9688 31.6645V35.4375H21.5V37.5H30.5V35.4375H27.0312V31.6645C28.1417 31.4302 29.3811 30.8583 30.4128 30.0773C31.8191 29.0133 32.5105 27.7083 32.7655 26.3353C33.6439 26.0489 34.6208 25.4536 35.2456 24.5911C36.0547 23.4745 36.5 22.0312 36.5 20.5312V18.75H32.7453ZM18.425 23.3813C17.9244 22.6931 17.6202 21.7687 17.57 20.8125H19.25V23.9705C19.0653 23.917 18.6444 23.6836 18.425 23.3813ZM33.575 23.3813C33.3594 23.6911 33.0312 23.9709 32.75 23.9709C32.75 22.9209 32.75 21.8011 32.7477 20.8125H34.4305C34.3798 21.7687 34.0625 22.6828 33.575 23.3813Z" fill="black" fill-opacity="0.82"/>
<defs>
<filter id="filter0_d_329_1130" x="0.349365" y="0.0830078" width="51.3013" height="55.834" filterUnits="userSpaceOnUse" color-interpolation-filters="sRGB">
<feFlood flood-opacity="0" result="BackgroundImageFix"/>
<feColorMatrix in="SourceAlpha" type="matrix" values="0 0 0 0 0 0 0 0 0 0 0 0 0 0 0 0 0 0 127 0" result="hardAlpha"/>
<feOffset dy="2"/>
<feGaussianBlur stdDeviation="2"/>
<feComposite in2="hardAlpha" operator="out"/>
<feColorMatrix type="matrix" values="0 0 0 0 0 0 0 0 0 0 0 0 0 0 0 0 0 0 0.25 0"/>
<feBlend mode="normal" in2="BackgroundImageFix" result="effect1_dropShadow_329_1130"/>
<feBlend mode="normal" in="SourceGraphic" in2="effect1_dropShadow_329_1130" result="shape"/>
</filter>
<linearGradient id="paint0_linear_329_1130" x1="-0.220931" y1="2.42216" x2="80.8098" y2="20.638" gradientUnits="userSpaceOnUse">
<stop stop-color="#FEA419"/>
<stop offset="1" stop-color="#FFDF6A"/>
</linearGradient>
</defs>
</svg>
