<svg id="svg" xmlns="http://www.w3.org/2000/svg" xmlns:xlink="http://www.w3.org/1999/xlink" width="400" height="299.68109339407744" viewBox="0, 0, 400,299.68109339407744"><g id="svgg"><path id="path0" d="M254.810 3.014 C 248.690 3.421,241.779 4.371,236.937 5.471 C 224.786 8.229,211.424 14.138,202.327 20.776 C 195.813 25.530,189.277 32.439,183.838 40.322 L 183.212 41.230 181.287 39.310 C 177.725 35.756,174.315 33.446,170.296 31.866 C 155.516 26.053,139.537 34.349,134.798 50.295 C 134.016 52.929,133.749 54.838,133.692 58.200 L 133.646 60.957 129.169 60.957 C 109.415 60.958,90.909 65.985,75.286 75.594 C 66.311 81.113,58.630 88.668,51.669 98.823 L 51.357 99.278 49.847 97.738 C 44.173 91.952,37.884 88.733,31.200 88.194 C 12.935 86.720,-1.011 103.265,2.239 122.551 C 3.237 128.474,5.716 134.624,9.732 141.139 C 14.989 149.667,19.995 155.093,27.090 159.954 C 28.857 161.165,30.359 162.265,30.761 162.641 L 31.185 163.039 31.127 166.052 C 30.900 177.815,30.973 180.712,31.758 191.116 C 32.328 198.680,33.405 205.614,35.252 213.622 C 38.360 227.096,40.320 232.683,45.610 243.144 C 49.755 251.340,49.986 252.387,49.309 259.954 C 48.800 265.652,48.829 270.287,49.392 273.576 C 52.327 290.706,67.227 300.026,88.428 297.995 C 99.485 296.936,106.100 293.448,114.096 284.460 C 116.414 281.855,115.019 282.123,126.891 282.006 C 136.026 281.916,137.601 281.870,141.185 281.594 C 144.494 281.339,147.103 281.185,148.107 281.185 L 149.117 281.185 149.626 281.708 C 149.906 281.997,150.703 282.929,151.397 283.781 C 153.534 286.405,154.148 287.102,155.619 288.571 C 162.592 295.535,171.749 298.735,184.647 298.716 C 204.950 298.685,217.585 286.907,217.283 268.292 C 217.229 264.923,217.159 264.103,216.453 258.491 C 215.411 250.204,215.562 248.823,218.207 242.461 L 219.210 240.047 220.455 239.934 C 231.179 238.961,238.002 235.343,245.942 226.419 C 248.259 223.814,246.864 224.082,258.736 223.965 C 267.871 223.875,269.446 223.829,273.030 223.553 C 276.344 223.297,278.948 223.144,279.958 223.144 L 280.973 223.144 281.516 223.713 C 281.814 224.026,282.608 224.959,283.280 225.786 C 286.101 229.256,287.945 231.184,290.023 232.836 C 296.841 238.257,305.064 240.692,316.492 240.675 C 332.872 240.650,344.464 232.922,348.120 219.590 C 349.474 214.652,349.515 210.119,348.292 200.364 C 347.222 191.833,347.347 190.893,350.569 183.189 C 355.111 172.331,356.761 167.047,358.898 156.518 C 362.334 139.597,363.274 130.886,363.418 114.670 C 363.471 108.652,363.524 107.464,363.782 106.555 C 364.002 105.780,364.721 105.194,368.747 102.506 C 378.565 95.953,383.218 91.466,388.452 83.508 C 398.301 68.531,400.732 53.810,395.268 42.228 C 390.432 31.974,380.044 25.734,369.097 26.506 C 359.170 27.207,351.110 32.667,345.503 42.491 L 344.848 43.639 343.471 41.569 C 333.732 26.922,321.466 17.233,303.657 10.119 C 297.490 7.655,291.645 5.993,284.920 4.791 C 281.923 4.256,276.152 3.572,271.298 3.177 C 268.597 2.958,257.331 2.846,254.810 3.014 " stroke="none" fill="#000000" fill-rule="evenodd"></path></g></svg>