<svg id="svg" xmlns="http://www.w3.org/2000/svg" xmlns:xlink="http://www.w3.org/1999/xlink" width="400" height="299.68109339407744" viewBox="0, 0, 400,299.68109339407744"><g id="svgg"><path id="path0" d="M254.901 3.014 C 248.781 3.421,241.870 4.371,237.028 5.471 C 224.878 8.229,211.515 14.138,202.418 20.776 C 195.904 25.530,189.368 32.439,183.929 40.322 L 183.303 41.230 181.378 39.310 C 177.816 35.756,174.406 33.446,170.387 31.866 C 155.607 26.053,139.628 34.349,134.889 50.295 C 134.107 52.929,133.840 54.838,133.784 58.200 L 133.737 60.957 129.215 60.957 C 109.411 60.958,90.924 65.976,75.286 75.594 C 66.311 81.113,58.630 88.668,51.669 98.823 L 51.357 99.278 49.847 97.738 C 44.173 91.952,37.884 88.733,31.200 88.194 C 12.935 86.720,-1.011 103.265,2.239 122.551 C 3.237 128.474,5.716 134.624,9.732 141.139 C 14.989 149.667,19.995 155.093,27.090 159.954 C 28.857 161.165,30.359 162.265,30.761 162.641 L 31.185 163.039 31.127 166.052 C 30.900 177.815,30.973 180.712,31.758 191.116 C 32.328 198.680,33.405 205.614,35.252 213.622 C 38.360 227.096,40.320 232.683,45.610 243.144 C 49.755 251.340,49.986 252.387,49.309 259.954 C 48.800 265.652,48.829 270.287,49.392 273.576 C 52.327 290.706,67.227 300.026,88.428 297.995 C 99.485 296.936,106.100 293.448,114.096 284.460 C 116.414 281.855,115.019 282.123,126.891 282.006 C 136.026 281.916,137.601 281.870,141.185 281.594 C 144.494 281.339,147.103 281.185,148.107 281.185 L 149.117 281.185 149.626 281.708 C 149.906 281.997,150.703 282.929,151.397 283.781 C 153.534 286.405,154.148 287.102,155.619 288.571 C 162.592 295.535,171.749 298.735,184.647 298.716 C 204.950 298.685,217.585 286.907,217.283 268.292 C 217.229 264.923,217.159 264.103,216.453 258.491 C 215.413 250.221,215.563 248.835,218.184 242.506 C 218.724 241.203,219.179 240.119,219.197 240.097 C 219.214 240.075,219.812 240.003,220.526 239.937 C 231.339 238.929,238.082 235.355,246.033 226.419 C 248.350 223.814,246.955 224.082,258.827 223.965 C 267.962 223.875,269.537 223.829,273.121 223.553 C 276.435 223.297,279.039 223.144,280.049 223.144 L 281.065 223.144 281.607 223.713 C 281.905 224.026,282.699 224.959,283.371 225.786 C 286.192 229.256,288.036 231.184,290.114 232.836 C 296.932 238.257,305.155 240.692,316.583 240.675 C 332.964 240.650,344.555 232.922,348.211 219.590 C 349.566 214.652,349.606 210.119,348.383 200.364 C 347.313 191.833,347.438 190.893,350.660 183.189 C 355.202 172.331,356.852 167.047,358.990 156.518 C 362.425 139.597,363.365 130.886,363.509 114.670 C 363.562 108.652,363.615 107.464,363.873 106.555 C 364.093 105.780,364.812 105.194,368.838 102.506 C 378.656 95.953,383.310 91.466,388.543 83.508 C 398.392 68.531,400.823 53.810,395.359 42.228 C 390.523 31.974,380.135 25.734,369.188 26.506 C 359.262 27.207,351.201 32.667,345.594 42.491 L 344.939 43.639 343.562 41.569 C 333.823 26.922,321.557 17.233,303.748 10.119 C 297.581 7.655,291.736 5.993,285.011 4.791 C 282.014 4.256,276.243 3.572,271.390 3.177 C 268.688 2.958,257.422 2.846,254.901 3.014 M265.652 16.766 C 276.598 17.101,286.862 18.792,294.715 21.554 C 296.910 22.326,296.984 22.353,298.405 22.916 C 314.488 29.284,324.242 37.219,333.349 51.345 C 337.898 58.401,338.997 59.843,340.867 61.203 C 344.680 63.977,349.069 63.085,352.276 58.884 C 353.501 57.279,354.054 56.335,356.103 52.346 C 358.446 47.787,359.306 46.496,361.355 44.461 C 370.120 35.753,383.503 41.433,384.333 54.214 C 384.685 59.638,382.686 66.221,378.532 73.320 C 374.297 80.555,369.926 85.089,362.278 90.179 C 357.923 93.078,356.884 93.816,355.672 94.874 C 352.736 97.436,351.131 100.032,350.337 103.503 C 349.836 105.693,349.802 106.224,349.704 113.394 C 349.503 128.253,348.818 135.972,346.732 146.925 C 344.361 159.373,343.208 163.954,340.793 170.524 C 340.127 172.338,339.637 173.552,337.723 178.132 C 334.570 185.681,333.980 188.158,333.993 193.804 C 334.000 196.953,334.010 197.076,334.760 203.144 C 335.459 208.802,335.594 211.655,335.265 213.850 C 333.783 223.743,324.993 228.264,310.661 226.508 C 303.242 225.598,299.377 223.438,294.537 217.494 C 288.059 209.540,285.625 208.616,273.759 209.616 C 269.521 209.972,267.932 210.025,258.770 210.113 C 248.783 210.208,248.317 210.223,246.743 210.495 C 241.807 211.348,239.588 212.737,235.057 217.813 C 232.024 221.210,230.129 222.750,227.318 224.099 C 226.383 224.548,224.694 225.173,224.615 225.099 C 224.598 225.083,224.772 224.359,225.002 223.491 C 226.916 216.274,229.288 203.705,230.294 195.444 C 231.185 188.135,231.483 182.830,231.573 172.711 C 231.626 166.693,231.679 165.505,231.937 164.596 C 232.157 163.821,232.876 163.235,236.902 160.547 C 243.204 156.341,245.251 154.731,248.777 151.214 C 257.757 142.254,264.591 129.137,266.011 118.132 C 268.535 98.578,254.328 82.760,235.945 84.656 C 226.852 85.594,218.863 91.292,213.631 100.571 L 213.003 101.686 211.626 99.613 C 206.715 92.217,201.522 86.490,194.989 81.265 C 183.834 72.344,167.846 65.326,152.984 62.827 C 151.904 62.645,147.969 62.050,147.848 62.050 C 147.673 62.050,147.515 58.963,147.616 57.515 C 148.013 51.802,151.428 46.767,156.264 44.764 C 158.889 43.676,162.212 43.619,164.875 44.616 C 168.526 45.982,170.829 47.929,175.634 53.713 C 179.317 58.145,181.192 59.380,184.115 59.300 C 187.262 59.212,188.837 57.837,193.231 51.338 C 204.227 35.070,213.187 28.066,231.390 21.508 C 241.132 17.999,252.865 16.375,265.652 16.766 M133.662 74.807 C 141.796 75.058,150.573 76.197,156.902 77.825 C 163.347 79.483,171.565 82.812,177.463 86.156 C 178.520 86.755,178.973 87.032,181.002 88.319 C 182.730 89.415,185.508 91.422,186.820 92.522 C 188.381 93.833,188.895 94.283,190.164 95.455 C 192.379 97.501,194.614 99.935,196.596 102.460 C 198.142 104.429,199.402 106.259,201.961 110.251 C 205.671 116.038,206.638 117.322,208.441 118.855 C 212.248 122.091,216.982 121.323,220.339 116.925 C 221.565 115.320,222.118 114.376,224.167 110.387 C 225.832 107.148,226.456 106.077,227.530 104.615 C 236.582 92.300,253.378 99.313,252.386 114.993 C 251.880 122.979,246.201 134.128,238.951 141.367 C 236.193 144.120,234.488 145.459,229.466 148.813 C 222.289 153.606,220.405 155.541,218.958 159.610 C 217.988 162.338,217.876 163.441,217.768 171.344 C 217.563 186.405,216.888 193.971,214.752 205.194 C 212.387 217.611,211.161 222.425,208.680 229.021 C 207.932 231.011,207.533 231.997,205.789 236.166 C 202.610 243.765,201.921 246.754,202.036 252.437 C 202.091 255.129,202.146 255.731,202.868 261.549 C 203.515 266.767,203.649 269.769,203.327 271.891 C 201.942 281.035,194.481 285.556,181.959 284.837 C 172.549 284.297,168.028 282.171,162.862 275.854 C 156.051 267.525,153.799 266.648,141.822 267.657 C 137.585 268.013,135.996 268.066,126.834 268.154 C 116.847 268.249,116.380 268.264,114.806 268.536 C 109.986 269.369,107.719 270.758,103.460 275.490 C 98.607 280.881,95.695 282.707,90.320 283.729 C 82.982 285.123,75.123 284.364,70.349 281.799 C 64.130 278.457,62.092 272.876,63.036 261.777 C 64.004 250.396,63.546 248.076,58.196 237.301 C 53.609 228.063,52.153 224.204,49.936 215.399 C 47.213 204.588,46.107 197.870,45.424 188.002 C 44.865 179.927,44.875 180.193,44.910 174.032 C 44.984 160.717,44.998 161.670,44.704 160.228 C 44.027 156.904,42.390 154.249,39.554 151.878 C 38.745 151.202,38.110 150.737,34.305 148.035 C 29.921 144.921,27.000 141.932,23.752 137.233 C 15.229 124.901,13.407 115.162,18.262 107.888 C 22.455 101.606,29.761 100.139,36.194 104.288 C 38.301 105.648,40.088 107.419,43.548 111.576 C 47.401 116.207,49.221 117.422,52.179 117.341 C 55.326 117.253,56.901 115.878,61.294 109.379 C 69.853 96.718,76.266 90.580,86.560 85.198 C 96.727 79.883,106.038 76.898,116.538 75.587 C 122.768 74.809,127.189 74.608,133.662 74.807 " stroke="none" fill="#000000" fill-rule="evenodd"></path></g></svg>