<svg width="48" height="48" viewBox="0 0 48 48" fill="none" xmlns="http://www.w3.org/2000/svg">
<path d="M23.9999 46.9998C36.7024 46.9998 46.9998 36.7024 46.9998 23.9999C46.9998 11.2974 36.7024 1 23.9999 1C11.2974 1 1 11.2974 1 23.9999C1 36.7024 11.2974 46.9998 23.9999 46.9998Z" fill="#FCEA2B"/>
<path d="M24 47C36.7025 47 47 36.7025 47 24C47 11.2975 36.7025 1 24 1C11.2975 1 1 11.2975 1 24C1 36.7025 11.2975 47 24 47Z" stroke="black" stroke-width="2" stroke-linecap="round" stroke-linejoin="round"/>
<path d="M33.8145 33.2266C31.051 35.5047 27.5812 36.7506 23.9998 36.7506C20.4183 36.7506 16.9485 35.5047 14.1851 33.2266" stroke="black" stroke-width="2" stroke-linecap="round" stroke-linejoin="round"/>
<path d="M19.6939 21.4034C19.3226 20.5679 18.717 19.8579 17.9504 19.3597C17.1838 18.8614 16.2891 18.5962 15.3748 18.5962C14.4604 18.5962 13.5658 18.8614 12.7991 19.3597C12.0325 19.8579 11.4269 20.5679 11.0557 21.4034" stroke="black" stroke-width="2" stroke-miterlimit="10" stroke-linecap="round"/>
<path d="M36.9439 21.4034C36.5726 20.5679 35.967 19.8579 35.2004 19.3597C34.4338 18.8614 33.5391 18.5962 32.6248 18.5962C31.7104 18.5962 30.8158 18.8614 30.0491 19.3597C29.2825 19.8579 28.6769 20.5679 28.3057 21.4034" stroke="black" stroke-width="2" stroke-miterlimit="10" stroke-linecap="round"/>
</svg>
