<svg id="svg" version="1.1" xmlns="http://www.w3.org/2000/svg" xmlns:xlink="http://www.w3.org/1999/xlink" width="400" height="358.3617747440273" viewBox="0, 0, 400,358.3617747440273"><g id="svgg"><path id="path0" d="M185.256 0.964 C 159.892 2.546,139.736 8.166,118.567 19.557 C 102.595 28.151,89.799 39.862,78.362 56.354 C 77.573 57.490,76.893 58.407,76.849 58.391 C 76.806 58.375,76.057 57.605,75.184 56.680 C 57.398 37.831,32.346 36.326,15.552 53.098 C -1.309 69.937,-1.540 94.846,14.922 121.229 C 23.366 134.761,29.333 140.996,43.148 150.717 C 44.375 151.580,45.689 152.572,46.068 152.920 L 46.758 153.554 46.758 156.538 C 46.758 158.179,46.674 162.041,46.572 165.119 C 46.211 175.967,47.202 194.580,48.815 207.235 C 50.568 220.990,55.069 240.441,59.462 253.242 C 61.618 259.527,63.408 263.597,68.561 273.925 C 74.857 286.545,74.977 287.133,73.842 299.863 C 72.109 319.296,75.592 332.041,85.384 342.097 C 94.607 351.568,107.156 356.067,124.369 356.073 C 144.920 356.081,157.407 350.608,170.411 335.893 C 172.181 333.891,173.131 332.912,173.611 332.597 C 174.470 332.035,175.048 332.003,186.826 331.880 C 204.235 331.697,207.950 331.570,215.017 330.916 C 215.805 330.843,218.048 330.743,220.001 330.695 L 223.551 330.608 224.301 331.421 C 224.714 331.868,226.126 333.547,227.440 335.153 C 239.495 349.882,250.666 355.407,271.058 356.724 C 296.408 358.360,315.269 348.307,322.543 329.283 C 325.780 320.818,326.171 313.538,324.234 297.816 C 322.405 282.975,322.412 282.925,328.361 268.669 C 334.442 254.094,337.026 245.607,340.195 229.799 C 345.163 205.014,346.452 193.086,346.758 169.078 C 346.932 155.403,346.892 155.739,348.521 154.231 C 348.973 153.812,351.928 151.739,355.087 149.625 C 363.722 143.846,366.096 142.017,371.089 137.295 C 385.994 123.199,397.228 101.311,398.632 83.632 C 401.016 53.592,376.334 30.720,348.599 37.270 C 336.750 40.067,326.832 48.160,319.862 60.719 L 319.068 62.149 318.693 61.552 C 303.690 37.698,283.897 21.907,255.154 10.860 C 240.832 5.355,227.541 2.678,206.962 1.151 C 203.513 0.895,188.444 0.766,185.256 0.964 M202.321 21.431 C 218.290 22.052,233.398 24.736,245.392 29.083 C 270.480 38.175,287.554 51.152,300.262 70.785 C 300.845 71.686,302.622 74.435,304.210 76.893 C 311.063 87.497,314.246 90.220,319.863 90.287 C 325.812 90.358,329.532 86.683,335.734 74.608 C 339.122 68.012,340.313 66.181,343.136 63.228 C 355.843 49.935,376.231 57.766,378.176 76.687 C 379.647 90.997,368.540 113.049,353.580 125.523 C 351.369 127.367,348.718 129.264,343.276 132.897 C 333.099 139.691,329.948 143.043,327.937 149.215 C 326.578 153.386,326.462 154.772,326.280 168.921 C 325.999 190.851,324.931 201.146,320.686 222.867 C 317.416 239.598,315.113 247.365,309.393 260.956 C 304.808 271.849,303.648 275.487,303.015 280.964 C 302.420 286.123,302.571 289.428,303.893 300.137 C 305.189 310.641,305.293 314.144,304.431 318.398 C 302.647 327.212,296.418 333.187,286.758 335.355 C 282.648 336.277,274.117 336.663,269.556 336.133 C 259.036 334.911,253.214 332.566,247.900 327.409 C 246.559 326.108,246.018 325.487,241.744 320.341 C 233.836 310.820,229.005 309.152,213.242 310.498 C 205.313 311.175,203.744 311.232,190.512 311.330 C 176.849 311.430,174.455 311.494,172.469 311.813 C 165.118 312.991,161.470 315.156,155.350 321.976 C 146.228 332.138,140.619 334.885,127.581 335.571 C 110.707 336.458,99.798 331.419,95.577 320.786 C 93.910 316.586,93.490 309.933,94.312 300.751 C 95.729 284.930,94.957 281.173,86.964 264.983 C 80.046 250.972,77.971 245.487,74.697 232.560 C 70.473 215.884,68.763 205.234,67.715 189.078 C 67.562 186.713,67.376 183.887,67.303 182.799 C 66.943 177.464,66.848 169.238,67.081 163.481 C 67.817 145.278,66.325 141.977,53.180 132.724 C 44.121 126.348,40.293 122.444,34.340 113.515 C 23.450 97.179,20.571 84.267,25.514 73.925 C 30.381 63.741,40.881 59.389,50.501 63.570 C 55.282 65.648,58.681 68.567,64.707 75.771 C 69.702 81.744,71.238 83.128,74.453 84.558 L 75.700 85.113 77.747 85.111 C 82.474 85.107,85.240 82.775,91.337 73.652 C 107.108 50.052,120.298 39.324,145.229 29.818 C 157.562 25.115,168.617 22.771,184.096 21.576 C 185.147 21.494,186.253 21.409,186.553 21.385 C 187.856 21.284,199.397 21.317,202.321 21.431 " stroke="none" fill="#000000" fill-rule="evenodd"></path></g></svg>