<svg id="svg" version="1.1" xmlns="http://www.w3.org/2000/svg" xmlns:xlink="http://www.w3.org/1999/xlink" width="400" height="359.97267759562845" viewBox="0, 0, 400,359.97267759562845"><g id="svgg"><path id="path0" d="M185.314 2.332 C 159.659 4.004,139.833 9.537,118.648 20.936 C 102.731 29.501,89.754 41.378,78.415 57.760 C 77.626 58.899,76.946 59.818,76.904 59.800 C 76.862 59.782,76.100 58.999,75.209 58.060 C 57.364 39.233,32.456 37.720,15.628 54.440 C -0.358 70.323,-1.512 93.933,12.493 118.579 C 20.896 133.367,28.683 142.043,41.735 151.158 C 44.496 153.086,45.982 154.205,46.448 154.708 L 46.790 155.076 46.790 158.105 C 46.790 159.771,46.706 163.624,46.603 166.667 C 46.011 184.228,48.137 208.689,51.711 225.428 C 56.600 248.335,59.812 257.846,68.608 275.478 C 74.908 288.107,75.026 288.687,73.893 301.442 C 72.316 319.196,74.968 330.869,82.824 340.751 C 92.793 353.292,110.653 359.407,131.626 357.459 C 148.669 355.876,158.994 350.567,170.574 337.432 C 172.304 335.470,173.228 334.519,173.722 334.196 C 174.604 333.618,174.984 333.597,186.954 333.472 C 204.445 333.289,208.060 333.166,215.164 332.508 C 215.953 332.435,218.197 332.335,220.151 332.287 L 223.703 332.200 224.454 333.013 C 224.867 333.460,226.157 334.991,227.321 336.414 C 239.692 351.546,250.884 357.105,271.463 358.340 C 298.041 359.935,317.301 348.824,323.688 328.210 C 326.090 320.462,326.243 313.844,324.374 298.709 C 322.645 284.709,322.704 284.311,328.584 270.219 C 335.074 254.666,337.557 246.224,341.252 227.155 C 345.522 205.123,346.694 193.587,346.998 170.628 C 347.136 160.161,347.202 158.574,347.551 157.309 C 347.839 156.265,349.095 155.261,355.299 151.111 C 361.033 147.276,363.153 145.771,365.779 143.669 C 383.588 129.416,397.310 105.136,398.904 85.055 C 400.939 59.418,383.328 38.296,359.347 37.612 C 343.075 37.147,329.107 45.864,320.090 62.109 L 319.306 63.522 317.246 60.415 C 302.686 38.457,284.284 23.835,257.855 13.224 C 242.301 6.980,229.081 4.187,207.172 2.519 C 203.795 2.262,188.408 2.130,185.314 2.332 " stroke="none" fill="#000000" fill-rule="evenodd"></path></g></svg>