<svg width="180" height="180" viewBox="0 0 180 180" fill="none" xmlns="http://www.w3.org/2000/svg">
<circle cx="90" cy="90" r="90" fill="white"/>
<path d="M47 149.483V140.167C47 128.222 56.0778 118.667 68.0222 118.667C82.3556 130.611 96.6889 130.611 111.022 118.667C122.967 118.667 133 128.222 133 140.167V149.483H47Z" fill="#92D3F5"/>
<path d="M56.7943 122.011C60.1387 119.861 63.9609 118.667 68.022 118.667C82.3554 130.611 96.6887 130.611 111.022 118.667C115.083 118.667 118.905 119.861 122.25 121.772C125.116 119.622 127.744 117.472 129.655 115.561C136.583 108.156 138.494 99.3166 134.433 89.7611C128.7 76.1444 127.266 76.3833 126.311 59.1833C126.311 49.15 118.666 40.7889 108.633 40.0722C108.633 40.0722 102.422 32.9055 89.522 32.9055C74.2332 32.9055 60.3776 41.2666 56.7943 54.4055C53.2109 67.7833 57.5109 73.0388 53.6887 83.0722C49.3887 94.3 39.8332 103.139 50.5832 116.278C52.0165 117.95 54.1665 120.1 56.7943 122.011Z" fill="#F1B31C"/>
<path d="M63.7222 80.4446C63.7222 99.5557 75.1888 111.261 89.5222 111.261C103.856 111.261 116.278 99.5557 116.278 80.4446C116.278 70.889 113.889 66.1112 113.889 66.1112C109.111 61.3334 104.333 56.5557 104.333 56.5557C104.333 56.5557 75.6666 61.3334 66.1111 66.1112C66.1111 66.1112 63.7222 70.889 63.7222 80.4446Z" fill="#FCEA2B"/>
<path d="M47 147.334V139.928C47 127.984 56.0778 118.428 68.0222 118.428C82.3556 130.372 96.6889 130.372 111.022 118.428C122.967 118.428 133 127.984 133 139.928V147.334" stroke="black" stroke-width="2" stroke-linecap="round" stroke-linejoin="round"/>
<path d="M104.333 78.0556C104.333 80.6834 102.183 82.8334 99.5556 82.8334C96.9278 82.8334 94.7778 80.6834 94.7778 78.0556C94.7778 75.4278 96.9278 73.2778 99.5556 73.2778C102.183 73.2778 104.333 75.4278 104.333 78.0556Z" fill="black"/>
<path d="M85.2221 78.0556C85.2221 80.6834 83.0721 82.8334 80.4443 82.8334C77.8165 82.8334 75.6665 80.6834 75.6665 78.0556C75.6665 75.4278 77.8165 73.2778 80.4443 73.2778C83.0721 73.2778 85.2221 75.4278 85.2221 78.0556Z" fill="black"/>
<path d="M63.7222 80.4446C63.7222 99.5557 75.1888 111.261 89.5222 111.261C103.856 111.261 116.278 99.5557 116.278 80.4446C116.278 70.889 113.889 66.1112 113.889 66.1112C109.111 61.3334 104.333 56.5557 104.333 56.5557C104.333 56.5557 75.6666 61.3334 66.1111 66.1112C66.1111 66.1112 63.7222 70.889 63.7222 80.4446Z" stroke="black" stroke-width="2" stroke-linejoin="round"/>
<path d="M82.3555 95.2556C86.8944 97.6445 92.1499 97.6445 96.6888 95.2556" stroke="black" stroke-width="2" stroke-linecap="round" stroke-linejoin="round"/>
<path d="M51.7777 113.889C42.2221 99.5556 47.4777 94.0612 52.0165 82.8334C55.8388 72.8001 51.5388 67.3056 55.1221 54.1667C58.7054 41.0279 72.561 32.6667 87.8499 32.6667C100.75 32.6667 106.961 39.8334 106.961 39.8334C116.994 40.789 124.639 49.1501 124.639 58.9445C125.594 76.1445 127.028 76.1445 132.761 89.5223C137.061 99.3167 135.15 105.767 128.222 113.65" stroke="black" stroke-width="2" stroke-linecap="round" stroke-linejoin="round"/>
</svg>
