<svg width="48" height="48" viewBox="0 0 48 48" fill="none" xmlns="http://www.w3.org/2000/svg">
<path d="M24 1C11.3177 1 1 11.3177 1 24C1 36.6822 11.3177 47 24 47C36.6822 47 47 36.6822 47 24C47 11.3177 36.6822 1 24 1Z" fill="#FCEA2B"/>
<path d="M24 47C36.7025 47 47 36.7025 47 24C47 11.2975 36.7025 1 24 1C11.2975 1 1 11.2975 1 24C1 36.7025 11.2975 47 24 47Z" stroke="black" stroke-width="2" stroke-miterlimit="10"/>
<path d="M15 31H33" stroke="black" stroke-width="2" stroke-miterlimit="10" stroke-linecap="round" stroke-linejoin="round"/>
<path d="M18 19C18 20.6568 16.6552 22 15 22C13.3447 22 12 20.6567 12 19C12 17.3448 13.3447 16 15 16C16.6552 16 18 17.3448 18 19Z" fill="black"/>
<path d="M36 19C36 20.6568 34.6553 22 33 22C31.3447 22 30 20.6567 30 19C30 17.3448 31.3447 16 33 16C34.6553 16 36 17.3448 36 19Z" fill="black"/>
</svg>
